<?xml version="1.0" encoding="utf-8"?>
<!-- Generator: Adobe Illustrator 16.0.0, SVG Export Plug-In . SVG Version: 6.00 Build 0)  -->
<!DOCTYPE svg PUBLIC "-//W3C//DTD SVG 1.1//EN" "http://www.w3.org/Graphics/SVG/1.1/DTD/svg11.dtd">
<svg version="1.1" id="Layer_1" xmlns="http://www.w3.org/2000/svg" xmlns:xlink="http://www.w3.org/1999/xlink" x="0px" y="0px"
	 width="220px" height="44.8px" viewBox="0 0 220 44.8" enable-background="new 0 0 220 44.8" xml:space="preserve">
<g>
	<path fill="#EFEFEF" d="M20.9,0l0.7,0.5C18,2.7,16,6,15.5,10.4c6.9,2,10.3,6.2,10.3,12.3c0,3.8-1.3,7-3.8,9.7
		c-2.5,2.6-5.6,3.9-9.3,3.9c-3.7,0-6.8-1.3-9.2-3.9S0,26.4,0,22.3C0,17.1,2,12.3,6,8C10,3.7,15,1,20.9,0z"/>
</g>
<g>
	<path fill="#FFFFFF" d="M24.1,44.8l-0.7-0.5c3.6-2.2,5.7-5.5,6.1-9.9c-6.9-2-10.3-6.2-10.3-12.3c0-3.8,1.3-7,3.8-9.7
		c2.5-2.6,5.6-3.9,9.3-3.9c3.7,0,6.8,1.3,9.2,3.9c2.4,2.6,3.6,6,3.6,10.1c0,5.2-2,9.9-6,14.2C35.1,41.1,30.1,43.8,24.1,44.8z"/>
</g>
<path fill="#FFFFFF" d="M74,8.6v9.3h-5.3v-4.6h-3v15.6h3v4.8H55.3v-4.8h2.9V13.3h-3.1v4.6h-5.3V8.6H74z"/>
<path fill="#FFFFFF" d="M73.6,17.3c0.4-0.2,0.8-0.5,1.4-0.8c0.6-0.3,1.2-0.6,1.9-0.8c0.7-0.3,1.4-0.5,2.2-0.7
	c0.8-0.2,1.6-0.3,2.4-0.3c1.1,0,2.2,0.1,3.3,0.3c1.1,0.2,2.2,0.6,3.1,1.2c0.9,0.6,1.7,1.3,2.3,2.3c0.6,1,0.9,2.2,0.9,3.6v7h2.2v4.6
	h-7.7l-0.9-1.6c-0.3,0.5-0.7,0.8-1.1,1.1c-0.4,0.3-0.9,0.5-1.3,0.7s-0.9,0.3-1.3,0.4c-0.4,0.1-0.8,0.1-1.1,0.1
	c-0.9,0-1.7-0.1-2.6-0.4c-0.8-0.2-1.6-0.6-2.3-1.1c-0.7-0.5-1.2-1.1-1.6-1.9c-0.4-0.8-0.6-1.7-0.6-2.7c0-1,0.2-1.9,0.6-2.7
	c0.4-0.8,0.9-1.5,1.6-2.1c0.7-0.6,1.5-1,2.4-1.3c0.9-0.3,1.9-0.5,2.9-0.5c0.5,0,1,0.1,1.4,0.2c0.4,0.1,0.8,0.2,1.1,0.4
	c0.3,0.1,0.5,0.3,0.7,0.4c0.2,0.1,0.3,0.2,0.3,0.3v-1.3c0-0.8-0.3-1.4-1-1.6c-0.6-0.3-1.5-0.4-2.4-0.4c-1.1,0-2.1,0.2-3,0.5
	s-1.7,0.7-2.4,1.1L73.6,17.3z M81.6,29.7c0.6,0,1-0.1,1.4-0.4c0.4-0.3,0.7-0.5,0.9-0.8v-1.4c0,0-0.1-0.1-0.2-0.2s-0.2-0.2-0.4-0.3
	c-0.2-0.1-0.4-0.2-0.6-0.3c-0.3-0.1-0.6-0.1-1-0.1c-0.7,0-1.2,0.2-1.6,0.5c-0.3,0.4-0.5,0.8-0.5,1.4c0,0.5,0.2,0.9,0.5,1.2
	C80.6,29.6,81.1,29.7,81.6,29.7z"/>
<path fill="#FFFFFF" d="M105.3,33.7H94.8V29h1.5V11.4h-1.5V6.8h8.3V29h2.1V33.7z"/>
<path fill="#FFFFFF" d="M107.2,33.7V29h1.5V11.5h-1.5V6.8h8.3V23l4.2-2.5h-2.6v-4.7h10.1v4.7h-2.8l-2.4,1.5l4.9,6.9h1.8v4.7h-10.6
	V29h1.5l-2.7-3.9l-1.3,0.9v3h1.3v4.7H107.2z"/>
<path fill="#FFFFFF" d="M155.2,14.9c-0.1,0.4-0.2,0.9-0.3,1.3c-0.1,0.5-0.2,0.9-0.3,1.4c-0.1,0.4-0.2,0.9-0.3,1.2
	c-0.1,0.4-0.2,0.7-0.2,0.9l-3.8,14h-7.5l-4-14.3c0-0.1-0.1-0.4-0.2-0.7c-0.1-0.3-0.1-0.7-0.2-1.1s-0.1-0.8-0.2-1.3
	c-0.1-0.5-0.1-0.9-0.1-1.4h-0.1v14.2h2v4.6h-9.7v-4.6h1.9V13.2h-1.9V8.6h13.6l3.6,13.4L151,8.6h13.7v4.6h-2V29h2v4.7h-11.4V29h2
	V14.9H155.2z"/>
<path fill="#FFFFFF" d="M176,34.2c-1.3,0-2.5-0.2-3.8-0.6c-1.2-0.4-2.3-1-3.2-1.8s-1.7-1.8-2.2-3c-0.6-1.2-0.8-2.6-0.8-4.2
	c0-1.5,0.3-2.8,0.8-4c0.6-1.2,1.3-2.1,2.2-2.9s2-1.4,3.2-1.8c1.2-0.4,2.4-0.6,3.6-0.6c1.4,0,2.7,0.2,4,0.7c1.2,0.4,2.3,1.1,3.2,1.9
	c0.9,0.8,1.6,1.8,2.1,3s0.8,2.5,0.8,4c0,1.5-0.3,2.8-0.8,3.9c-0.5,1.1-1.2,2.1-2.1,2.9c-0.9,0.8-1.9,1.4-3.1,1.8
	C178.6,34,177.3,34.2,176,34.2z M176,29.6c0.4,0,0.7-0.1,1-0.4c0.3-0.2,0.6-0.6,0.8-1c0.2-0.4,0.4-0.9,0.5-1.5
	c0.1-0.6,0.2-1.2,0.2-1.9c0-0.7-0.1-1.3-0.2-1.9c-0.1-0.6-0.3-1.1-0.5-1.5s-0.5-0.8-0.8-1c-0.3-0.3-0.7-0.4-1.1-0.4
	c-0.4,0-0.7,0.1-1,0.4c-0.3,0.2-0.6,0.6-0.8,1c-0.2,0.4-0.4,0.9-0.5,1.5c-0.1,0.6-0.2,1.2-0.2,1.8c0,1.5,0.3,2.7,0.8,3.6
	C174.6,29.1,175.2,29.6,176,29.6z"/>
<path fill="#FFFFFF" d="M197.3,33.7h-10.2V29h1.6v-8.6h-1.5v-4.7h6.8l1.1,2.3c0.2-0.4,0.5-0.8,0.8-1.2c0.3-0.4,0.6-0.7,1-1
	c0.4-0.3,0.9-0.5,1.5-0.7c0.6-0.2,1.4-0.3,2.3-0.3v6.5c-1.6,0-2.9,0.3-3.8,0.8c-0.9,0.5-1.3,1.6-1.3,3.2V29h1.8V33.7z"/>
<path fill="#FFFFFF" d="M220,31.2c-1.3,1.1-2.8,2-4.2,2.4c-1.5,0.5-3.2,0.7-5,0.7c-1.1,0-2.3-0.2-3.4-0.6c-1.1-0.4-2.1-0.9-3-1.7
	c-0.9-0.8-1.6-1.8-2.2-3c-0.6-1.2-0.9-2.7-0.9-4.4c0-1.5,0.3-2.8,0.8-3.9c0.5-1.2,1.2-2.2,2-3c0.9-0.8,1.9-1.4,3.1-1.9
	c1.2-0.4,2.4-0.6,3.8-0.6c1.5,0,2.8,0.2,3.9,0.6c1.1,0.4,2.1,1,2.9,1.8c0.8,0.8,1.3,1.7,1.7,2.7c0.4,1,0.6,2.2,0.6,3.4
	c0,0.5,0,1-0.1,1.4c-0.1,0.5-0.2,0.9-0.3,1.3h-11.3c0,0.2,0.1,0.5,0.2,0.9c0.1,0.3,0.3,0.7,0.6,1c0.3,0.3,0.6,0.6,1.1,0.8
	c0.5,0.2,1.1,0.3,1.8,0.3c0.3,0,0.7,0,1,0c0.4,0,0.8-0.1,1.2-0.2c0.4-0.1,0.9-0.3,1.4-0.5c0.5-0.2,1-0.5,1.4-1L220,31.2z
	 M211.1,20.1c-0.6,0-1,0.1-1.3,0.3c-0.3,0.2-0.6,0.5-0.8,0.8c-0.2,0.3-0.3,0.6-0.4,1c-0.1,0.3-0.1,0.6-0.2,0.8h5.4
	c0-0.3,0-0.7-0.1-1c-0.1-0.3-0.2-0.7-0.4-0.9c-0.2-0.3-0.4-0.5-0.8-0.7C212.2,20.2,211.7,20.1,211.1,20.1z"/>
</svg>
